<svg xmlns="http://www.w3.org/2000/svg" viewBox="0 0 337.5 208.25"><defs><style>.cls-1{stroke:#000;}.cls-1,.cls-2,.cls-4{stroke-miterlimit:10;}.cls-1,.cls-4{stroke-width:0.5px;}.cls-2{fill:#d35e0d;stroke:#d35e0d;}.cls-3{font-size:122.17px;font-family:AgencyFB-Reg, Agency FB;}.cls-3,.cls-4{fill:#f0f0f0;}.cls-4{stroke:#f0f0f0;}</style></defs><title>InvestoFoxLogo</title><g id="Layer_5" data-name="Layer 5"><path class="cls-1" d="M302,110.68c-2.35-1.63-3.54-4.51-4.6-7.23l-1.63-4.17a57,57,0,0,1-3.61-11.57c-.14-.86-.15-1.92.55-2.37.89-.57,2,.34,2.59,1.19a41.88,41.88,0,0,0,3.84,4.9c1.83,1.8,4.11,3,6.13,4.57a22.57,22.57,0,0,1,8.08,13.18,21.68,21.68,0,0,1-5.38,2C305.87,111.52,303.74,111.91,302,110.68Z" transform="translate(-38 -81.75)"/></g><g id="Layer_3" data-name="Layer 3"><path class="cls-2" d="M268.2,155.88c.71-.76,1.48-1.44,2.25-2.13l11.63-10.29a10.68,10.68,0,0,0,2.44-2.75,10.87,10.87,0,0,0,1-4.05l.82-7.84c.17-1.62,1.46-2.79,2.42-4.06q4.08-5.42,8.58-10.46a37,37,0,0,1,8.81-7.75c8.78-5,19.08-8.51,28.84-6.15,8.06,1.95,15.1,6.9,21.94,11.76l-2.84,0a40,40,0,0,1,19.67,26.63,21.39,21.39,0,0,0-4.88-4.62,41.55,41.55,0,0,1,2.3,7.79,154.84,154.84,0,0,1,3.3,20.9c.58,6.81.94,13.83-.05,20.61-.29-1-3.47-5.72-3.84-3.4-.19,1.2.45,3,.63,4.22.2,1.38.39,2.76.55,4.15.63,5.71.76,11.57-.62,17.17a25.87,25.87,0,0,0-3.62-7.72c.1.14,0,.72,0,.9,0,.35,0,.7,0,1.06,0,.68,0,1.36,0,2a34.29,34.29,0,0,1-.5,6.41c-.59,3-1.12,5.93-2,8.82l-.66,2.19c-.62,2.06-1.55,4-2.36,6a10.92,10.92,0,0,0-1.09-2.32c-1-1.52-2.77-2.09-4.42-2.5-1.32-.32-2.68-.4-4-.66-5.22-1-9.73-4.55-13.05-8.86s-5.61-9.36-7.86-14.37l-7.42-16.48c-3.67-8.16-8.12-17.08-16.28-20.08-6.82-2.5-14.28-.11-21.29,1.74-4.22,1.11-8.67,2-13,1.47a14.6,14.6,0,0,1-6.19-1.92C264.81,159.59,266.42,157.8,268.2,155.88Z" transform="translate(-38 -81.75)"/><text class="cls-3" transform="translate(0 183.79) scale(0.9 1)">Investo</text></g><g id="Layer_2" data-name="Layer 2"><path class="cls-4" d="M267.13,161.91a20.79,20.79,0,0,0,9.22,5.05c1.63.4,3.4-.33,5-.87a155.9,155.9,0,0,1,16.55-4.56c2.2-.48,4.7-.85,6.55.5a2.14,2.14,0,0,1,.84,1.12,2.91,2.91,0,0,1-.91,2.33,34.77,34.77,0,0,0-4.86,8.45c-1.58,3.94-1.66,8.32-1.78,12.59a6.55,6.55,0,0,1,3.85-4.79c-2.18,6.61-2.13,13.77-2,20.76a9.73,9.73,0,0,1,2.38-5.81,58,58,0,0,0,6.94,26.56,8.9,8.9,0,0,1,.8-5.81,138.63,138.63,0,0,0,12.46,25.74,5.22,5.22,0,0,1,2-2.21,12.68,12.68,0,0,0,2.37,5.39c4.76,7.12,11.11,12.89,17.39,18.58a7.71,7.71,0,0,1-.4-4.08,32.84,32.84,0,0,1,4.78-13.93,11.13,11.13,0,0,0,1.1,5.94c-.38-.76.29-3.08.43-3.91a39.13,39.13,0,0,1,.9-4,60,60,0,0,1,2.83-7.84c1.07-2.5,2.05-4.84,2.88-7.42.46-1.44,1-2.87,1.48-4.28a19.74,19.74,0,0,1,.83-2.14c0-.09.55-1.1.53-1.12A17.29,17.29,0,0,1,358,220a32.11,32.11,0,0,1-1.61-4.5c-.55-1.66-1.16-3.3-1.66-5l-.06,5.75a40.31,40.31,0,0,1-6.51-26.37c-2.79,3.37-5.73,7.16-5.67,11.61a20,20,0,0,1-.17-8.93,62.61,62.61,0,0,0,.45-9.58c0-5-.15-10.23-2.72-14.41a7.07,7.07,0,0,1,5.19,3.08,27.3,27.3,0,0,0-5.58-10.32c-3.92-4.16-9.39-5.86-14.24-8.42a17.88,17.88,0,0,1,10.75,1.73,28.6,28.6,0,0,0-20-9.5,7.84,7.84,0,0,1,5.66-1.49,25.1,25.1,0,0,0-18.41.92,7.61,7.61,0,0,1,1.67-2.7c-3.59,1.54-7.24,3.13-10.2,5.75-2.21,2-4,4.5-6.54,6-3.71,2.15-8.28,1.67-12.32,3-1.55.51-3,1.27-4.58,1.74a10.57,10.57,0,0,1-4.78.09,1.56,1.56,0,0,0-.57,0C264.62,158.8,266.66,161.47,267.13,161.91Z" transform="translate(-38 -81.75)"/></g><g id="Layer_4" data-name="Layer 4"><path class="cls-1" d="M267,155.75a5.25,5.25,0,0,0-1.76,2.68,3.44,3.44,0,0,0,1.51,3.5.28.28,0,0,0,.31,0,4.79,4.79,0,0,0,3.3-4.14,8.76,8.76,0,0,0-.23-2c0-.15-.53-1.79-.52-1.8A12.82,12.82,0,0,0,267,155.75Z" transform="translate(-38 -81.75)"/><path class="cls-1" d="M325.84,98.49c-1.92-1.52-4.35-2.15-6.43-3.41A25.36,25.36,0,0,1,316,92.43a119.65,119.65,0,0,1-10.08-9.55,2.23,2.23,0,0,0-1.25-.87,1.52,1.52,0,0,0-1.49,1.34,4.67,4.67,0,0,0,.29,2.21l2.88,9.66a103.14,103.14,0,0,0,3.9,11.38,40,40,0,0,0,2.76,5.32c.67,1.07,1.21,2.37,2.38,3a19.06,19.06,0,0,0-1-2.85,17.14,17.14,0,0,1-.93-7.07,14.5,14.5,0,0,1,3.58,4.83,21.94,21.94,0,0,0,1.61-4.81,11,11,0,0,0,.27-2.43c0-.57.13-2.11-.25-2.56a21.33,21.33,0,0,1,2.41,3.6,9.63,9.63,0,0,1,1.32,6.51,4.54,4.54,0,0,0,1.18-4.61c.11.34,1.1,1,1.36,1.35s.7,1,1,1.5a27.24,27.24,0,0,1,2.13,4.5C330.15,108.26,330,101.72,325.84,98.49Z" transform="translate(-38 -81.75)"/></g><g id="Layer_6" data-name="Layer 6"><path class="cls-1" d="M292.71,135.92c.24-.52.49-1,.76-1.53.88-1.64,1.78-3.31,3.6-3.88a7.66,7.66,0,0,1,2.74-.26,16.89,16.89,0,0,1,4,.66,3.26,3.26,0,0,0-2.22,1.94c-.43,1.09-.27,2.37-.78,3.43-1.07,2.19-3.71,1.82-5.68,2.07a6.78,6.78,0,0,0-3.78,1.5A26.13,26.13,0,0,1,292.71,135.92Z" transform="translate(-38 -81.75)"/></g></svg>