<svg xmlns="http://www.w3.org/2000/svg" viewBox="0 0 213.55 362.23"><defs><style>.cls-1{stroke:#000;}.cls-1,.cls-2,.cls-3{stroke-miterlimit:10;}.cls-1,.cls-3{stroke-width:0.5px;}.cls-2{fill:#d35e0d;stroke:#d35e0d;}.cls-3{fill:#f0f0f0;stroke:#f0f0f0;}</style></defs><title>InvestoFoxLogo-fox-only</title><g id="Layer_5" data-name="Layer 5"><path class="cls-1" d="M162.49,76.6c-4.54-3.23-6.84-8.91-8.9-14.28l-3.17-8.23c-2.85-7.43-5.73-14.92-7-22.83-.27-1.68-.29-3.78,1.07-4.68,1.72-1.12,3.79.68,5,2.36,2.41,3.29,4.58,6.81,7.44,9.68,3.54,3.54,8,5.91,11.87,9a44.5,44.5,0,0,1,15.66,26c-3.39,1.6-6.76,3.29-10.42,3.92C170,78.24,165.9,79,162.49,76.6Z" transform="translate(-90.95 -19.75)"/></g><g id="Layer_3" data-name="Layer 3"><path class="cls-2" d="M97,165.77a59.59,59.59,0,0,1,4.36-4.2l22.53-20.31a20.78,20.78,0,0,0,4.73-5.42c1.26-2.42,1.57-5.25,1.85-8l1.58-15.47c.33-3.19,2.83-5.5,4.69-8q7.91-10.68,16.64-20.62c5.1-5.81,10.51-11.49,17.07-15.3,17-9.89,37-16.79,55.88-12.14,15.63,3.84,29.28,13.63,42.53,23.22l-5.49-.06c19.12,10.47,33.48,30.27,38.12,52.56a42.42,42.42,0,0,0-9.46-9.13c2.12,4.88,3.29,10.14,4.46,15.37a309.44,309.44,0,0,1,6.38,41.23c1.13,13.44,1.83,27.29-.09,40.67-.57-2-6.72-11.29-7.44-6.71-.38,2.38.87,5.93,1.22,8.33.39,2.73.75,5.46,1.06,8.2,1.23,11.26,1.48,22.81-1.2,33.87a51.26,51.26,0,0,0-7-15.23,5.73,5.73,0,0,1,.07,1.77c0,.69.05,1.39.07,2.09,0,1.34.05,2.68,0,4a69.38,69.38,0,0,1-1,12.64c-1.15,5.86-2.18,11.7-3.87,17.41l-1.28,4.31c-1.21,4.07-3,7.87-4.58,11.79a21.67,21.67,0,0,0-2.1-4.59c-2-3-5.38-4.12-8.58-4.92-2.56-.64-5.18-.8-7.76-1.31-10.11-2-18.85-9-25.29-17.48S224.31,255.89,220,246q-7.2-16.26-14.38-32.52c-7.12-16.1-15.75-33.7-31.56-39.62-13.21-4.95-27.67-.22-41.25,3.43-8.18,2.2-16.8,3.89-25.26,2.89-4-.47-8.5-1.48-12-3.78C90.45,173.09,93.57,169.55,97,165.77Z" transform="translate(-90.95 -19.75)"/></g><g id="Layer_2" data-name="Layer 2"><path class="cls-3" d="M94.94,177.66a40,40,0,0,0,17.88,10c3.16.79,6.58-.65,9.67-1.71a297.15,297.15,0,0,1,32.08-9c4.28-.95,9.12-1.68,12.69,1a4.1,4.1,0,0,1,1.64,2.2c.4,1.67-.74,3.27-1.77,4.6a69.59,69.59,0,0,0-9.42,16.67c-3.07,7.76-3.21,16.42-3.45,24.84a12.88,12.88,0,0,1,7.47-9.45c-4.23,13-4.12,27.17-4,41a19.22,19.22,0,0,1,4.61-11.46,116.06,116.06,0,0,0,13.44,52.4,18,18,0,0,1,1.56-11.47A273.68,273.68,0,0,0,201.52,338a10.51,10.51,0,0,1,3.86-4.35c.48,3.91,2.48,7.4,4.6,10.64,9.23,14,21.54,25.43,33.72,36.66-1.15-2.45-1.06-5.34-.78-8.06a65.72,65.72,0,0,1,9.25-27.48,22.36,22.36,0,0,0,2.14,11.72c-.73-1.49.56-6.07.83-7.71a79.49,79.49,0,0,1,1.75-8A124.21,124.21,0,0,1,262.36,326c2.08-4.94,4-9.57,5.59-14.66q1.33-4.26,2.87-8.43a41.57,41.57,0,0,1,1.61-4.24c.08-.17,1.06-2.15,1-2.21A33.1,33.1,0,0,1,271,292.3a64.5,64.5,0,0,1-3.13-8.88c-1.07-3.27-2.24-6.51-3.22-9.82L264.56,285a80.66,80.66,0,0,1-12.62-52c-5.4,6.64-11.1,14.14-11,22.9-1.72-5.85-1.24-11.7-.33-17.62,1-6.18.85-12.65.87-18.9,0-9.8-.29-20.18-5.28-28.42A13.62,13.62,0,0,1,246.28,197c-2.39-7.44-5.63-14.76-10.81-20.37-7.59-8.21-18.19-11.56-27.61-16.62a34.27,34.27,0,0,1,20.84,3.41c-10.08-11.17-24.11-18.32-38.73-18.74a14.94,14.94,0,0,1,11-2.93,47.78,47.78,0,0,0-35.68,1.81,14.71,14.71,0,0,1,3.24-5.33c-7,3-14.05,6.17-19.77,11.36-4.29,3.88-7.77,8.87-12.69,11.78-7.18,4.24-16,3.3-23.87,5.92-3,1-5.85,2.5-8.88,3.43-3.22,1-6,.61-9.26.17a3,3,0,0,0-1.11,0C90.08,171.53,94,176.8,94.94,177.66Z" transform="translate(-90.95 -19.75)"/></g><g id="Layer_4" data-name="Layer 4"><path class="cls-1" d="M94.74,165.5a10.37,10.37,0,0,0-3.4,5.3,6.83,6.83,0,0,0,2.93,6.91.62.62,0,0,0,.25.11.66.66,0,0,0,.34,0c3.29-1.16,6.31-4.37,6.4-8.18a16.33,16.33,0,0,0-.45-3.88c-.07-.3-1-3.54-1-3.55A25.5,25.5,0,0,0,94.74,165.5Z" transform="translate(-90.95 -19.75)"/><path class="cls-1" d="M208.73,52.53c-3.73-3-8.43-4.23-12.46-6.73a49,49,0,0,1-6.59-5.23c-6.73-6-13.49-12-19.53-18.84A4.33,4.33,0,0,0,167.73,20c-1.39-.18-2.62,1.19-2.89,2.64A9.59,9.59,0,0,0,165.4,27L171,46.08a205.69,205.69,0,0,0,7.56,22.46A79,79,0,0,0,183.89,79c1.3,2.11,2.35,4.68,4.63,5.84a41.19,41.19,0,0,0-1.85-5.63,34.2,34.2,0,0,1-1.79-14c2.72,2.82,5.52,5.76,6.92,9.52a44.19,44.19,0,0,0,3.13-9.49,24,24,0,0,0,.53-4.78c0-1.13.24-4.16-.49-5.06a42.34,42.34,0,0,1,4.67,7.11c2.05,3.91,3.52,8.48,2.55,12.83a9,9,0,0,0,2.28-9.08c.22.66,2.15,1.9,2.65,2.66.65,1,1.36,1.95,2,3a55.43,55.43,0,0,1,4.12,8.87C217.08,71.82,216.69,58.9,208.73,52.53Z" transform="translate(-90.95 -19.75)"/></g><g id="Layer_6" data-name="Layer 6"><path class="cls-1" d="M144.53,126.39c.45-1,.94-2,1.46-3,1.7-3.22,3.45-6.53,7-7.65a15.3,15.3,0,0,1,5.31-.52,33.42,33.42,0,0,1,7.74,1.3,6.36,6.36,0,0,0-4.31,3.84c-.84,2.15-.53,4.68-1.52,6.76-2.06,4.34-7.18,3.6-11,4.09a12.89,12.89,0,0,0-7.32,3A49,49,0,0,1,144.53,126.39Z" transform="translate(-90.95 -19.75)"/></g></svg>